<?xml version="1.0" encoding="UTF-8"?>
<svg version="1.1" xmlns="http://www.w3.org/2000/svg" width="406" height="398">
<path d="M0 0 C133.98 0 267.96 0 406 0 C406 131.34 406 262.68 406 398 C272.02 398 138.04 398 0 398 C0 266.66 0 135.32 0 0 Z " fill="#0F1733" transform="translate(0,0)"/>
<path d="M0 0 C0.79473156 0.00291284 1.58946312 0.00582568 2.40827745 0.00882679 C3.24626011 0.00797237 4.08424277 0.00711794 4.94761884 0.00623763 C7.77753875 0.00458025 10.60740041 0.01010838 13.43731493 0.01555592 C15.45714117 0.01583776 17.47696751 0.01568011 19.49679369 0.01511341 C24.99863402 0.01482532 30.50045275 0.0207239 36.00228804 0.02768737 C41.74519121 0.03391901 47.48809482 0.03452456 53.23100084 0.03571278 C64.11429909 0.03882666 74.99758735 0.0470408 85.88088119 0.05706227 C98.26760812 0.06822165 110.65433552 0.07373341 123.04106623 0.0787577 C148.52919309 0.08922337 174.01731107 0.1068239 199.50543016 0.12908131 C199.19188346 1.57022569 198.87650195 3.01097096 198.56034654 4.4515453 C198.3849154 5.25390268 198.20948425 6.05626005 198.02873701 6.88293129 C197.42614405 9.46939504 196.64168681 11.928946 195.72808641 14.42205006 C195.38487352 15.36725514 195.04166063 16.31246022 194.68804735 17.28630787 C194.31840868 18.28629811 193.94877001 19.28628834 193.56793016 20.31658131 C193.17895555 21.38231373 192.78998094 22.44804615 192.38921922 23.5460735 C191.54718686 25.85054821 190.70252849 28.15406476 189.85552782 30.45671803 C188.6883684 33.63147606 187.52656922 36.80808609 186.36796373 39.98596913 C184.27819389 45.71780006 182.18472368 51.44829482 180.08355516 57.17595631 C179.70618212 58.20559498 179.32880907 59.23523365 178.94000047 60.2960735 C176.83442362 65.92193404 174.66180888 71.52249664 172.50543016 77.12908131 C136.86543016 77.62408131 136.86543016 77.62408131 100.50543016 78.12908131 C112.94002011 86.41880794 125.37503297 94.69824469 137.88043016 102.87908131 C140.51373693 104.60228601 143.14657575 106.32620174 145.77886766 108.05095631 C146.73282427 108.67580921 146.73282427 108.67580921 147.70605272 109.31328541 C153.00155846 112.78704557 158.27178763 116.29809769 163.52773851 119.83141285 C166.80219911 122.02537935 170.10550282 124.13477764 173.50543016 126.12908131 C173.03103252 131.32726822 170.33205535 134.77695536 167.44293016 138.94158131 C166.35129167 140.54541276 165.260174 142.14959879 164.16949266 143.75408131 C163.58071337 144.61517506 162.99193407 145.47626881 162.38531297 146.36345631 C159.69234434 150.32526783 157.0463363 154.31776189 154.39727587 158.30901295 C142.15971814 176.7450941 142.15971814 176.7450941 137.78301805 182.67766529 C135.99869191 185.22087959 134.69317156 187.80025229 133.40582079 190.62517506 C130.44440669 196.62940801 127.39947782 202.78684805 120.73724169 205.08324391 C112.74940236 206.39861804 104.79720877 205.75986293 96.75543016 205.25408131 C88.42293016 204.88283131 80.09043016 204.51158131 71.50543016 204.12908131 C71.50543016 229.20908131 71.50543016 254.28908131 71.50543016 280.12908131 C60.42373955 276.80457413 60.42373955 276.80457413 55.51324266 274.82048756 C47.24121332 271.58176132 38.81702951 268.8390542 30.38043016 266.06658131 C5.27298436 257.7962268 5.27298436 257.7962268 -5.49456984 253.12908131 C-6.67168455 211.11923456 -6.56869325 169.15705668 -6.49456984 127.12908131 C18.25543016 126.79908131 43.00543016 126.46908131 68.50543016 126.12908131 C62.89543016 122.49908131 57.28543016 118.86908131 51.50543016 115.12908131 C48.33233693 113.03324384 45.16325166 110.93485279 42.00543016 108.81658131 C41.29902391 108.3441399 40.59261766 107.8716985 39.86480516 107.38494068 C36.95750228 105.44054925 34.05114318 103.49475307 31.14556688 101.54778248 C27.33774352 99.0012466 23.52216931 96.48376877 19.63043016 94.06658131 C14.12949009 90.58527209 8.75341921 86.92920582 3.38043016 83.25408131 C2.52594286 82.67005543 1.67145555 82.08602955 0.79107469 81.48430592 C-5.36365326 77.25999789 -5.36365326 77.25999789 -6.49456984 76.12908131 C-6.59480539 73.79193806 -6.63076186 71.48433806 -6.62396437 69.14665943 C-6.62571669 68.41660191 -6.62746901 67.68654438 -6.62927443 66.9343639 C-6.63369283 64.50966253 -6.63075501 62.08503349 -6.62738234 59.66033131 C-6.62805538 57.98263748 -6.62902541 56.30494375 -6.63028151 54.62725025 C-6.63175846 51.10652957 -6.629604 47.58583421 -6.62494093 44.06511647 C-6.61924364 39.54197635 -6.62252266 35.01889557 -6.6285134 30.49575764 C-6.63211907 27.03005736 -6.63098039 23.56437124 -6.6283856 20.09867054 C-6.62771635 18.43042706 -6.62854469 16.76218232 -6.63086516 15.09394032 C-6.63339179 12.76642637 -6.62955096 10.43900983 -6.62396437 8.11150318 C-6.6259886 7.41536412 -6.62801283 6.71922505 -6.6300984 6.00199085 C-6.60310075 -0.03926344 -5.9693468 0.0165975 0 0 Z " fill="#3E51CA" transform="translate(117.49456983804703,65.8709186911583)"/>
<path d="M0 0 C0.79473156 0.00291284 1.58946312 0.00582568 2.40827745 0.00882679 C3.24626011 0.00797237 4.08424277 0.00711794 4.94761884 0.00623763 C7.77753875 0.00458025 10.60740041 0.01010838 13.43731493 0.01555592 C15.45714117 0.01583776 17.47696751 0.01568011 19.49679369 0.01511341 C24.99863402 0.01482532 30.50045275 0.0207239 36.00228804 0.02768737 C41.74519121 0.03391901 47.48809482 0.03452456 53.23100084 0.03571278 C64.11429909 0.03882666 74.99758735 0.0470408 85.88088119 0.05706227 C98.26760812 0.06822165 110.65433552 0.07373341 123.04106623 0.0787577 C148.52919309 0.08922337 174.01731107 0.1068239 199.50543016 0.12908131 C199.19188346 1.57022569 198.87650195 3.01097096 198.56034654 4.4515453 C198.3849154 5.25390268 198.20948425 6.05626005 198.02873701 6.88293129 C197.42614405 9.46939504 196.64168681 11.928946 195.72808641 14.42205006 C195.38487352 15.36725514 195.04166063 16.31246022 194.68804735 17.28630787 C194.31840868 18.28629811 193.94877001 19.28628834 193.56793016 20.31658131 C193.17895555 21.38231373 192.78998094 22.44804615 192.38921922 23.5460735 C191.54718686 25.85054821 190.70252849 28.15406476 189.85552782 30.45671803 C188.6883684 33.63147606 187.52656922 36.80808609 186.36796373 39.98596913 C184.27819389 45.71780006 182.18472368 51.44829482 180.08355516 57.17595631 C179.70618212 58.20559498 179.32880907 59.23523365 178.94000047 60.2960735 C177.62864302 63.83182081 176.27071616 67.34940618 174.91576952 70.8686443 C174.46465177 72.04061989 174.01353403 73.21259548 173.54874605 74.42008549 C173.03230469 75.76103842 173.03230469 75.76103842 172.50543016 77.12908131 C149.31438528 77.15240775 126.12334233 77.17005923 102.93228811 77.18089348 C92.16507953 77.18605698 81.39787822 77.1931007 70.6306743 77.20452076 C61.24957771 77.21446595 51.86848639 77.22093434 42.48738468 77.2231698 C37.51692798 77.22447719 32.54648636 77.22756481 27.57603449 77.23481137 C22.90334894 77.24156898 18.23068475 77.2436988 13.55799478 77.24218899 C11.837815 77.24246544 10.11763455 77.24447208 8.39745897 77.24828678 C6.05936355 77.25322001 3.72135013 77.25208099 1.38325304 77.24933583 C0.07154162 77.25025762 -1.24016979 77.25117941 -2.59163004 77.25212914 C-5.49456984 77.12908131 -5.49456984 77.12908131 -6.49456984 76.12908131 C-6.59480539 73.79193806 -6.63076186 71.48433806 -6.62396437 69.14665943 C-6.62571669 68.41660191 -6.62746901 67.68654438 -6.62927443 66.9343639 C-6.63369283 64.50966253 -6.63075501 62.08503349 -6.62738234 59.66033131 C-6.62805538 57.98263748 -6.62902541 56.30494375 -6.63028151 54.62725025 C-6.63175846 51.10652957 -6.629604 47.58583421 -6.62494093 44.06511647 C-6.61924364 39.54197635 -6.62252266 35.01889557 -6.6285134 30.49575764 C-6.63211907 27.03005736 -6.63098039 23.56437124 -6.6283856 20.09867054 C-6.62771635 18.43042706 -6.62854469 16.76218232 -6.63086516 15.09394032 C-6.63339179 12.76642637 -6.62955096 10.43900983 -6.62396437 8.11150318 C-6.6259886 7.41536412 -6.62801283 6.71922505 -6.6300984 6.00199085 C-6.60310075 -0.03926344 -5.9693468 0.0165975 0 0 Z " fill="#3E51CA" transform="translate(117.49456983804703,65.8709186911583)"/>
<path d="M0 0 C13.36969798 -0.18577435 26.73908638 -0.32771762 40.10981464 -0.41449738 C46.31919929 -0.4561585 52.52769764 -0.51262259 58.73657227 -0.60351562 C64.73427666 -0.69076276 70.73113135 -0.73834233 76.72942162 -0.75901794 C79.0119482 -0.77374225 81.2944309 -0.80249613 83.5765934 -0.84584045 C105.09109605 -1.23801913 105.09109605 -1.23801913 112.96595764 5.97128296 C113.63719162 6.64075958 114.3084256 7.31023621 115 8 C116.18421368 8.84309139 117.39174226 9.65533267 118.62915039 10.41821289 C120.87792594 11.83754914 123.12425021 13.26025129 125.36767578 14.68798828 C125.96686829 15.06836243 126.56606079 15.44873657 127.18341064 15.84063721 C130.19868778 17.76501275 133.1914288 19.7235426 136.18359375 21.68359375 C136.77629059 22.07165192 137.36898743 22.45971008 137.97964478 22.85952759 C139.79932799 24.05157882 141.61844461 25.24449098 143.4375 26.4375 C144.3812146 27.05588745 144.3812146 27.05588745 145.34399414 27.68676758 C153.67404508 33.14533503 161.98787722 38.62645582 170.25 44.1875 C172.09386604 45.40277534 173.97049848 46.56964041 175.875 47.6875 C176.57625 48.120625 177.2775 48.55375 178 49 C178 49.33 178 49.66 178 50 C164.75150573 50.27953396 151.50372652 50.49200665 138.25287056 50.62174606 C132.09801304 50.68405478 125.94519046 50.7683924 119.79150391 50.90527344 C113.83904278 51.03683145 107.88852313 51.10765038 101.93471909 51.13852692 C99.67734117 51.16049402 97.42005506 51.2033878 95.163517 51.26876068 C79.58170136 51.70171774 69.88961051 49.37929071 57.72801781 39.39639664 C55.46452611 37.56728806 53.0691681 35.98404633 50.62109375 34.4140625 C47.80859375 32.5390625 44.99609375 30.6640625 42.18359375 28.7890625 C41.50288818 28.33547363 40.82218262 27.88188477 40.12084961 27.41455078 C38.628685 26.41931632 37.13738933 25.42277842 35.64672852 24.42529297 C31.8128114 21.86196186 27.97258682 19.32131073 24.0625 16.875 C18.7718935 13.51924388 13.53588534 10.08409408 8.3125 6.625 C7.49724854 6.08858887 6.68199707 5.55217773 5.84204102 4.99951172 C5.08592529 4.49693848 4.32980957 3.99436523 3.55078125 3.4765625 C2.86669189 3.02361816 2.18260254 2.57067383 1.4777832 2.10400391 C0.99011475 1.73968262 0.50244629 1.37536133 0 1 C0 0.67 0 0.34 0 0 Z " fill="#747477" transform="translate(113,143)"/>
<path d="M0 0 C25.41 0 50.82 0 77 0 C77 25.08 77 50.16 77 76 C65.91830939 72.67549282 65.91830939 72.67549282 61.0078125 70.69140625 C52.73578316 67.45268001 44.31159935 64.70997289 35.875 61.9375 C11.29672483 53.8414535 11.29672483 53.8414535 0 49 C0 32.83 0 16.66 0 0 Z " fill="#747478" transform="translate(112,270)"/>
<path d="M0 0 C25.41 0 50.82 0 77 0 C77 0.33 77 0.66 77 1 C52.58 1.33 28.16 1.66 3 2 C2.17709021 13.29824652 2.17709021 13.29824652 1.68359375 24.5859375 C1.66281265 25.29859772 1.64203156 26.01125793 1.62062073 26.74551392 C1.55680417 28.95527453 1.4970491 31.16512075 1.4375 33.375 C1.3941537 34.90104946 1.35053531 36.42709122 1.30664062 37.953125 C1.20130413 41.63533358 1.09960138 45.31763128 1 49 C0.67 49 0.34 49 0 49 C0 32.83 0 16.66 0 0 Z " fill="#616164" transform="translate(112,270)"/>
<path d="M0 0 C2.475 0.99 2.475 0.99 5 2 C5 2.33 5 2.66 5 3 C-10.18 3 -25.36 3 -41 3 C-41 2.67 -41 2.34 -41 2 C-27.47 2 -13.94 2 0 2 C0 1.34 0 0.68 0 0 Z " fill="#606063" transform="translate(286,190)"/>
</svg>
