<?xml version="1.0" encoding="UTF-8"?>
<svg version="1.1" xmlns="http://www.w3.org/2000/svg" width="1024" height="1024">
<path d="M0 0 C337.92 0 675.84 0 1024 0 C1024 337.92 1024 675.84 1024 1024 C686.08 1024 348.16 1024 0 1024 C0 686.08 0 348.16 0 0 Z " fill="#636067" transform="translate(0,0)"/>
<path d="M0 0 C0.7634402 -0.00175304 1.52688041 -0.00350607 2.31345516 -0.00531223 C4.88045689 -0.00997691 7.44740209 -0.00750552 10.0144062 -0.00507832 C11.86989327 -0.00694605 13.72537994 -0.0092466 15.58086598 -0.01194364 C20.68676763 -0.01807265 25.79265293 -0.01792675 30.89855742 -0.01674926 C36.40240657 -0.01654554 41.90625043 -0.02206132 47.41009712 -0.02680683 C58.19553741 -0.03511983 68.98097224 -0.03786196 79.76641546 -0.03841921 C88.53101674 -0.03889404 97.2956162 -0.04094711 106.0602169 -0.04411983 C126.85434837 -0.05149424 147.64847874 -0.05764447 168.44261169 -0.05712128 C169.1076922 -0.0571057 169.77277271 -0.05709012 170.45800717 -0.05707407 C173.82896448 -0.05699096 177.19992178 -0.05689192 180.57087909 -0.05678936 C181.24037186 -0.05676942 181.90986463 -0.05674947 182.59964505 -0.05672892 C183.95352246 -0.05668848 185.30739986 -0.05664669 186.66127726 -0.05660353 C207.72830411 -0.05599069 228.79531487 -0.06349875 249.86233711 -0.07717609 C273.5270253 -0.09253357 297.19170544 -0.10112986 320.85639966 -0.10021287 C333.3879565 -0.09988053 345.9194952 -0.10264383 358.4510479 -0.11339092 C369.11935988 -0.12248131 379.78764549 -0.1246832 390.45595966 -0.1178815 C395.90079652 -0.11460898 401.34558272 -0.11458598 406.79041481 -0.12323475 C411.7731848 -0.1310683 416.7558637 -0.12970063 421.73863138 -0.12095062 C423.54276721 -0.11940868 425.34690973 -0.12125775 427.15103768 -0.12681069 C429.60123987 -0.13385367 432.05112105 -0.12859062 434.50131226 -0.12025452 C435.55451793 -0.12770679 435.55451793 -0.12770679 436.62900048 -0.13530961 C442.70942904 -0.09150747 448.29000958 1.12164514 453.50149727 4.31613445 C454.12282539 4.68093914 454.74415352 5.04574383 455.38430977 5.4216032 C458.96286105 8.48793048 461.89299108 11.74290571 462.84134293 16.42228794 C463.01797515 19.10459014 463.04089019 21.7470619 463.00760078 24.43503094 C463.01833374 25.95347607 463.01833374 25.95347607 463.02928352 27.50259686 C463.04613622 30.83543872 463.02678543 34.16692889 463.00540352 37.4997282 C463.00623259 39.82468559 463.00869341 42.14964292 463.01271248 44.47459698 C463.01556824 49.34261034 463.00089127 54.21016305 462.9734211 59.07809734 C462.93935845 65.30678284 462.94535275 71.53464378 462.96408367 77.76336861 C462.97467145 82.56334032 462.96569922 87.36312143 462.95069885 92.16307545 C462.9455284 94.45910418 462.94598498 96.75515291 462.9522438 99.05117893 C462.95771651 102.26549969 462.93725294 105.47865553 462.90994453 108.69284344 C462.91973335 110.10594547 462.91973335 110.10594547 462.92971992 111.54759502 C462.82985855 118.488099 461.34174598 124.07495884 456.41165352 129.15207195 C455.76067696 129.59808758 455.10970039 130.0441032 454.43899727 130.50363445 C453.79059883 130.96511883 453.14220039 131.4266032 452.47415352 131.90207195 C447.50887137 134.80542129 443.22593555 135.42142256 437.53665352 135.4372282 C435.92174048 135.46029287 434.30683179 135.48366386 432.69192696 135.50729656 C431.41013557 135.52105831 431.41013557 135.52105831 430.10244942 135.53509808 C413.24513971 135.73153105 396.44752074 136.46273869 379.62649727 137.56613445 C378.65399025 137.62775768 377.68148323 137.68938091 376.6795063 137.75287151 C367.13206109 138.36303175 357.70623477 139.07146595 348.26419258 140.67135906 C343.40958713 141.44010069 338.52378158 141.80326414 333.62649727 142.19113445 C331.69387497 142.34457756 329.76155564 142.50190432 327.82962227 142.6637907 C326.57907051 142.76252483 326.57907051 142.76252483 325.30325508 142.86325359 C323.37221374 142.93158082 323.37221374 142.93158082 322.37649727 144.12863445 C319.83657942 144.69996795 317.30934977 145.21467173 314.75149727 145.69113445 C313.70155586 145.89899578 313.70155586 145.89899578 312.63040352 146.11105633 C308.13348503 146.95787864 303.95131658 147.26671955 299.37649727 147.12863445 C299.37649727 147.78863445 299.37649727 148.44863445 299.37649727 149.12863445 C298.37231758 149.2987907 297.36813789 149.46894695 296.33352852 149.64425945 C287.43144924 151.20220544 278.97750583 153.31472424 270.37649727 156.12863445 C268.10595403 156.79628847 265.83512168 157.46296006 263.56399727 158.12863445 C259.18307037 159.4729622 255.18997473 161.02055348 251.15384102 163.1794157 C247.34812844 165.21191714 243.75386962 167.12863445 239.37649727 167.12863445 C239.37649727 167.78863445 239.37649727 168.44863445 239.37649727 169.12863445 C238.34911446 169.61332195 237.32173164 170.09800945 236.26321602 170.59738445 C227.65412349 174.73154134 219.86839347 179.13963749 212.37649727 185.12863445 C211.42903633 185.87371258 210.48157539 186.6187907 209.50540352 187.38644695 C206.75410265 189.58898089 204.05462233 191.83791113 201.37649727 194.12863445 C200.45610664 194.90207195 200.45610664 194.90207195 199.51712227 195.69113445 C185.28415364 208.70413435 174.91988694 229.23488259 172.37649727 248.12863445 C171.90140359 249.3883114 171.39927044 250.63798615 170.87649727 251.87863445 C164.6528158 267.90840916 166.35381389 295.41030008 173.20266914 311.01047039 C175.43454903 315.80135601 177.87540334 320.47392491 180.37649727 325.12863445 C180.87278633 326.0722282 181.36907539 327.01582195 181.88040352 327.98800945 C189.34891824 341.35048023 202.57780817 354.19573809 217.37649727 359.12863445 C217.37649727 359.78863445 217.37649727 360.44863445 217.37649727 361.12863445 C218.36649727 361.23175945 219.35649727 361.33488445 220.37649727 361.44113445 C223.8373395 361.93159313 226.85951606 363.03455849 230.11802864 364.30356121 C239.18711235 367.61671695 247.8519131 368.56197146 257.4690361 368.53932476 C259.57672542 368.53476393 261.68361102 368.54906916 263.7912159 368.56772137 C269.01536393 368.61027088 274.23948658 368.62174936 279.46377754 368.63394451 C283.90529275 368.64551406 288.34643094 368.66915695 292.78778839 368.70863628 C294.8523403 368.72209955 296.91636598 368.71805893 298.98094368 368.71322918 C307.30783893 368.77993922 313.55071271 369.26427779 320.06399727 374.87863445 C320.60411446 375.3272282 321.14423164 375.77582195 321.70071602 376.23800945 C326.7327289 381.91515219 327.97055775 386.58576637 327.90994453 393.9504118 C327.9185601 394.80504513 327.92717567 395.65967846 327.93605232 396.54020977 C327.95864394 399.34864391 327.95198518 402.15607447 327.94290352 404.96457195 C327.94814275 406.92841162 327.95442032 408.89224876 327.96168709 410.85608196 C327.97207924 414.96658472 327.96754775 419.07674105 327.95291328 423.1872282 C327.93574215 428.4384449 327.95920652 433.68856565 327.99440289 438.93966007 C328.01643287 442.99421637 328.0149216 447.0485128 328.00663757 451.10311031 C328.00582084 453.0382803 328.01263082 454.9734699 328.0274086 456.90858364 C328.15520079 476.67362436 328.15520079 476.67362436 320.81938362 484.86798382 C311.91051414 493.47564848 300.29482499 492.57103305 288.79055977 492.54855633 C287.01074887 492.55590427 285.23094274 492.5644926 283.45114326 492.57422161 C278.63713335 492.59636621 273.82329495 492.59937196 269.0092411 492.5974741 C264.98339073 492.59735411 260.95757632 492.60592956 256.93173599 492.61425161 C247.4321787 492.63345903 237.93270928 492.63637867 228.43313789 492.62961102 C218.64626473 492.6229669 208.85976814 492.64585566 199.07297134 492.68292475 C190.65571171 492.71364488 182.2385731 492.72497942 173.82125854 492.72108793 C168.8002696 492.71902342 163.77957402 492.72445427 158.75863838 492.74898052 C154.03718552 492.77128431 149.31634464 492.76933969 144.59488869 492.749053 C142.86677001 492.74564976 141.13860983 492.75070241 139.41054726 492.76503658 C128.8217859 492.84678011 121.00799265 492.29157527 112.88821602 484.84738445 C111.98522774 483.7491032 111.98522774 483.7491032 111.06399727 482.62863445 C110.41817696 481.85390789 109.77235664 481.07918133 109.10696602 480.2809782 C108.53591133 479.57070477 107.96485664 478.86043133 107.37649727 478.12863445 C106.13899727 476.67457195 106.13899727 476.67457195 104.87649727 475.19113445 C103.37649727 473.12863445 103.37649727 473.12863445 103.37649727 471.12863445 C102.73712227 470.86050945 102.09774727 470.59238445 101.43899727 470.31613445 C99.37649727 469.12863445 99.37649727 469.12863445 98.37649727 466.12863445 C96.72977412 465.41412407 95.05945448 464.75303597 93.37649727 464.12863445 C91.97994877 463.15895549 90.60482182 462.1577786 89.25149727 461.12863445 C80.19132516 455.02383974 69.85218209 455.58389283 59.37649727 457.12863445 C51.51974062 459.52561106 43.23870457 464.46506722 38.37649727 471.12863445 C37.71649727 471.12863445 37.05649727 471.12863445 36.37649727 471.12863445 C36.15348946 471.66488445 35.93048164 472.20113445 35.70071602 472.75363445 C33.93580881 475.91901376 31.62022249 478.47040715 29.18899727 481.12863445 C28.73202461 481.6494157 28.27505196 482.17019695 27.80423164 482.70675945 C23.55895962 487.37008184 18.72811264 490.98714467 12.37649727 492.12863445 C9.91128645 492.23021829 7.47392647 492.28076708 5.00865364 492.2825346 C4.26429595 492.28691685 3.51993826 492.29129911 2.75302428 492.29581416 C0.25747687 492.30917424 -2.23803526 492.31537473 -4.73361015 492.32150555 C-6.52253185 492.32940871 -8.31145196 492.33767779 -10.10037041 492.34628582 C-15.97655533 492.3724809 -21.85274729 492.38781083 -27.72897148 492.40207195 C-29.75327178 492.40743264 -31.77757204 492.41281015 -33.80187225 492.41820431 C-42.22338526 492.43982922 -50.64489636 492.45856535 -59.06643009 492.4698267 C-71.12814347 492.4860629 -83.18953457 492.51923728 -95.25112647 492.57622755 C-103.73620328 492.61494978 -112.22119398 492.63446209 -120.70635682 492.63974726 C-125.77216425 492.64339752 -130.83762775 492.6553845 -135.90333939 492.68785 C-140.67146605 492.71797077 -145.4390414 492.72422814 -150.20724297 492.71246624 C-151.9531116 492.71224584 -153.69900611 492.72052287 -155.44478607 492.73812008 C-165.81050656 492.83688199 -173.95620298 492.55348288 -181.81490898 485.0309782 C-182.26736992 484.38257977 -182.71983086 483.73418133 -183.18600273 483.06613445 C-183.66166679 482.41515789 -184.13733086 481.76418133 -184.62740898 481.0934782 C-185.62350273 479.12863445 -185.62350273 479.12863445 -185.62350273 475.12863445 C-186.28350273 475.12863445 -186.94350273 475.12863445 -187.62350273 475.12863445 C-187.73952225 463.53236543 -187.82828211 451.93623523 -187.88256359 440.33950329 C-187.90862047 434.95422599 -187.94394747 429.56934675 -188.0007 424.18429852 C-188.05515865 418.9841704 -188.08495267 413.78442437 -188.09788895 408.58403301 C-188.10710394 406.60333017 -188.12509887 404.62264747 -188.15215302 402.64210796 C-188.1886276 399.86046994 -188.19344042 397.08039628 -188.19112968 394.29855633 C-188.21809425 393.07934994 -188.21809425 393.07934994 -188.24560356 391.83551311 C-188.18161395 384.68302203 -185.29863763 380.03292429 -180.52584648 374.8512907 C-179.87744804 374.30343914 -179.22904961 373.75558758 -178.56100273 373.19113445 C-177.91002617 372.62523602 -177.25904961 372.05933758 -176.58834648 371.4762907 C-172.73441749 368.83293981 -168.80824841 368.98945513 -164.23434258 368.93918133 C-162.93975121 368.9224638 -161.64515984 368.90574627 -160.31133842 368.88852215 C-159.6225095 368.88184017 -158.93368057 368.8751582 -158.22397804 368.86827374 C-156.06391341 368.84718404 -153.90399446 368.82016921 -151.74401665 368.79159832 C-146.38248799 368.721893 -141.0208557 368.6623064 -135.6592083 368.60257244 C-131.12251912 368.55166773 -126.58591039 368.49686655 -122.04933357 368.43675518 C-119.9188379 368.41015783 -117.78833472 368.38936187 -115.65777397 368.36874676 C-114.36948692 368.35202923 -113.08119987 368.3353117 -111.75387383 368.31808758 C-110.61566185 368.3055595 -109.47744987 368.29303143 -108.30474663 368.28012371 C-105.65175184 368.30777866 -105.65175184 368.30777866 -103.62350273 367.12863445 C-101.85543506 366.85977127 -100.08391251 366.61345694 -98.31100273 366.37863445 C-84.59911504 364.10964351 -71.60051621 357.58779953 -60.81100273 348.8512907 C-58.62350273 347.12863445 -58.62350273 347.12863445 -56.62350273 347.12863445 C-56.38115898 346.56531414 -56.13881523 346.00199383 -55.88912773 345.4216032 C-54.37665043 342.68140514 -52.52490976 340.71328372 -50.37350273 338.44113445 C-43.85221148 331.30225703 -39.24206992 324.07890692 -35.62350273 315.12863445 C-35.23162773 314.22113445 -34.83975273 313.31363445 -34.43600273 312.37863445 C-33.57021206 309.9810603 -33.05374136 307.63835979 -32.62350273 305.12863445 C-31.96350273 305.12863445 -31.30350273 305.12863445 -30.62350273 305.12863445 C-29.36502977 291.27890199 -29.47126814 277.43168662 -29.46578789 263.5363493 C-29.46111231 260.86247847 -29.45603304 258.1886115 -29.45039177 255.51474285 C-29.43894023 249.78390317 -29.4306582 244.05306632 -29.42427254 238.32221889 C-29.41388644 229.26309333 -29.39331227 220.20400364 -29.37115288 211.14490032 C-29.36367625 208.03839218 -29.35626222 204.93188389 -29.34886551 201.82537556 C-29.34608966 200.66142375 -29.34608966 200.66142375 -29.34325773 199.47395777 C-29.32239077 190.66956308 -29.30352898 181.86516452 -29.28561211 173.06076336 C-29.28397392 172.25711022 -29.28233574 171.45345707 -29.28064792 170.6254508 C-29.25429446 157.56740489 -29.23568222 144.50935617 -29.2190202 131.45129482 C-29.20160924 118.02282516 -29.17278531 104.59441101 -29.13413084 91.1659857 C-29.11074002 82.89262293 -29.09673712 74.6193506 -29.0948032 66.34595449 C-29.09269636 60.68567944 -29.07978861 55.02549469 -29.05832388 49.36526017 C-29.04628359 46.09974327 -29.04077911 42.83444206 -29.04503632 39.56890011 C-29.0489132 36.03078286 -29.0345342 32.49319921 -29.01550102 28.95514202 C-29.02103072 27.92160009 -29.02656041 26.88805815 -29.03225768 25.82319677 C-28.98500691 20.75493545 -28.91080095 17.25443807 -25.62350273 13.12863445 C-25.25869804 12.52019695 -24.89389336 11.91175945 -24.51803398 11.28488445 C-21.10277322 6.05719289 -16.63260028 2.15499774 -10.4710654 0.57759207 C-6.96888713 0.02542525 -3.53479288 -0.01027862 0 0 Z " fill="#2D0C47" transform="translate(443.62350273132324,324.8713655471802)"/>
<path d="M0 0 C2.04989605 0.68415281 4.0921339 1.39179178 6.125 2.125 C7.094375 2.47175781 8.06375 2.81851563 9.0625 3.17578125 C22.10663284 8.22344436 33.73331106 15.81733617 44.125 25.125 C44.73859375 25.62257812 45.3521875 26.12015625 45.984375 26.6328125 C47.125 28.125 47.125 28.125 47.03125 29.875 C36.98807735 54.80977349 16.80857941 75.40018274 -7.875 86.125 C-13.27249042 86.90427293 -16.19719898 84.33542253 -20.38671875 81.23828125 C-24.24013219 77.96560202 -27.05545558 74.29818986 -29.875 70.125 C-30.51824219 69.1865625 -31.16148437 68.248125 -31.82421875 67.28125 C-37.1587173 59.23080999 -37.1587173 59.23080999 -37.875 54.125 C-38.865 54.125 -39.855 54.125 -40.875 54.125 C-40.875 54.785 -40.875 55.445 -40.875 56.125 C-41.803125 56.846875 -42.73125 57.56875 -43.6875 58.3125 C-49.36039243 62.90420587 -50.26335006 69.2222609 -51.4453125 76.0859375 C-51.875 78.125 -51.875 78.125 -52.875 79.125 C-53.2905394 80.85375645 -53.65458647 82.59495275 -53.99609375 84.33984375 C-54.20943359 85.41943359 -54.42277344 86.49902344 -54.64257812 87.61132812 C-54.86365234 88.75021484 -55.08472656 89.88910156 -55.3125 91.0625 C-55.52970703 92.16658203 -55.74691406 93.27066406 -55.97070312 94.40820312 C-57.22297298 100.76985547 -57.22297298 100.76985547 -58.44580078 107.13720703 C-58.70659424 108.49434814 -58.70659424 108.49434814 -58.97265625 109.87890625 C-59.12355713 110.67756104 -59.27445801 111.47621582 -59.42993164 112.29907227 C-59.875 114.125 -59.875 114.125 -60.875 115.125 C-61.2905394 116.85375645 -61.65458647 118.59495275 -61.99609375 120.33984375 C-62.20943359 121.41943359 -62.42277344 122.49902344 -62.64257812 123.61132812 C-62.86365234 124.75021484 -63.08472656 125.88910156 -63.3125 127.0625 C-63.52970703 128.16658203 -63.74691406 129.27066406 -63.97070312 130.40820312 C-64.60769118 133.64670396 -65.24152489 136.88581045 -65.875 140.125 C-66.23932295 141.98728552 -66.60506314 143.84929472 -66.97265625 145.7109375 C-67.12355713 146.47841309 -67.27445801 147.24588867 -67.42993164 148.03662109 C-68.08613079 151.11568172 -68.96551676 154.11233677 -69.875 157.125 C-70.5436144 159.45777596 -71.21052764 161.79104084 -71.875 164.125 C-69.27047729 163.98413398 -66.66649803 163.83751536 -64.0625 163.6875 C-63.32451172 163.64818359 -62.58652344 163.60886719 -61.82617188 163.56835938 C-58.64428658 163.38118965 -55.91337622 163.13779207 -52.875 162.125 C-52.875 161.465 -52.875 160.805 -52.875 160.125 C-50.88421681 158.57428467 -48.90556059 157.1502089 -46.8125 155.75 C-46.21123291 155.34370361 -45.60996582 154.93740723 -44.99047852 154.51879883 C-43.29143963 153.37836067 -41.58348849 152.25123239 -39.875 151.125 C-39.215 150.68285156 -38.555 150.24070312 -37.875 149.78515625 C-26.92605847 142.96944015 -14.70882907 141.9445782 -2.1875 141.9375 C-1.06666016 141.92525391 0.05417969 141.91300781 1.20898438 141.90039062 C12.31758123 141.8810489 21.6880353 143.32987625 31.6875 148.25 C32.50742432 148.64380859 33.32734863 149.03761719 34.17211914 149.44335938 C39.81944389 152.24488966 44.55052063 155.3272911 49.21484375 159.59375 C51.22093545 161.20190531 52.61182344 161.72019304 55.125 162.125 C55.73988281 161.42632812 56.35476563 160.72765625 56.98828125 160.0078125 C57.79652344 159.09773437 58.60476563 158.18765625 59.4375 157.25 C60.23800781 156.34507812 61.03851563 155.44015625 61.86328125 154.5078125 C64.125 152.125 64.125 152.125 67.125 150.125 C64.5024588 142.25737641 53.15657156 136.87961483 46.125 133.125 C43.15808558 131.70546591 40.16733566 130.37426827 37.125 129.125 C37.125 128.135 37.125 127.145 37.125 126.125 C44.06252631 120.15056558 53.50462538 117.62944568 62.125 115.125 C63.36636719 114.75890625 64.60773438 114.3928125 65.88671875 114.015625 C70.99789145 112.77976712 76.07408047 112.67996047 81.3125 112.625 C82.24513672 112.58375 83.17777344 112.5425 84.13867188 112.5 C95.59968354 112.37927835 103.17561741 115.71089069 115.125 119.125 C115.125 168.625 115.125 218.125 115.125 269.125 C92.025 269.125 68.925 269.125 45.125 269.125 C42.815 266.485 40.505 263.845 38.125 261.125 C36.16235037 259.10031973 34.19802039 257.09936995 32.1875 255.125 C31.69443359 254.63644531 31.20136719 254.14789063 30.69335938 253.64453125 C29.50626771 252.46896475 28.31599502 251.29661174 27.125 250.125 C21.76770891 251.78760758 16.68998174 253.72111923 11.5625 256 C-3.90754443 262.70368592 -20.86803649 268.07965284 -37.875 267.125 C-37.875 267.785 -37.875 268.445 -37.875 269.125 C-45.135 269.125 -52.395 269.125 -59.875 269.125 C-59.875 268.465 -59.875 267.805 -59.875 267.125 C-60.46023437 267.17140625 -61.04546875 267.2178125 -61.6484375 267.265625 C-92.85043345 268.57742063 -125.08631272 250.6707858 -148.875 232.125 C-150.57828319 230.4957726 -152.25661281 228.83858643 -153.875 227.125 C-154.73351562 226.5578125 -155.59203125 225.990625 -156.4765625 225.40625 C-158.875 223.125 -158.875 223.125 -159.46875 220.078125 C-158.6661197 188.37422834 -152.67730796 153.40667883 -137.82421875 125.05078125 C-136.78753335 122.94754708 -135.95743212 120.81695008 -135.125 118.625 C-130.81090084 107.61895174 -125.14441383 97.127708 -118.875 87.125 C-117.95074219 85.60326172 -117.95074219 85.60326172 -117.0078125 84.05078125 C-106.0817729 66.08871225 -94.08950729 48.83167196 -80.2890625 32.94921875 C-77.44342114 29.62009463 -74.80622432 26.1658116 -72.21484375 22.63671875 C-71.77269531 22.13785156 -71.33054687 21.63898438 -70.875 21.125 C-70.215 21.125 -69.555 21.125 -68.875 21.125 C-68.50375 20.2896875 -68.50375 20.2896875 -68.125 19.4375 C-66.64575182 16.70089087 -64.94032561 14.44849131 -62.875 12.125 C-62.215 12.125 -61.555 12.125 -60.875 12.125 C-60.6584375 11.59261719 -60.441875 11.06023437 -60.21875 10.51171875 C-58.38172685 7.24886658 -55.9144203 4.65737006 -53.375 1.9375 C-52.87613281 1.39158203 -52.37726563 0.84566406 -51.86328125 0.28320312 C-40.88826681 -11.58923206 -14.03106189 -4.09933637 0 0 Z " fill="#2D0C47" transform="translate(277.875,212.875)"/>
<path d="M0 0 C0.66 0.33 1.32 0.66 2 1 C-0.31 3.31 -2.62 5.62 -5 8 C-5 5 -5 5 -2.5 2.3125 C-1.675 1.549375 -0.85 0.78625 0 0 Z " fill="#321B48" transform="translate(425,330)"/>
</svg>
